# xmcd
#
# Track frame offsets: 
#        150
#        13988
#        28325
#        43236
#        57409
#        71882
#        84047
#        97336
#        115950
#        132604
#        145900
#
# Disc length: 2247 seconds
#
# Revision: 0
# Processed by: cddbd v1.4PL0 Copyright (c) Steve Scherf et al.
# Submitted via: ExactAudioCopy v0.90b3
#
DISCID=ac08c50b
DTITLE=Tom Jones - The Country Side Of
DYEAR=1985
DGENRE=Oldies
TTITLE0=Darlin'
TTITLE1=But I Do
TTITLE2=Lady Lay Down
TTITLE3=I Don't Wnat To Now You That Well
TTITLE4=Dime Queen Of Nevada
TTITLE5=What In The World's Come Over You
TTITLE6=One Night
TTITLE7=A Daughter's Question
TTITLE8=No Guarantee
TTITLE9=The Things That Matter Most To Me
TTITLE10=Come Home Rhonda Boy
EXTD=
EXTT0=
EXTT1=
EXTT2=
EXTT3=
EXTT4=
EXTT5=
EXTT6=
EXTT7=
EXTT8=
EXTT9=
EXTT10=
PLAYORDER=
